<?xml version="1.0" encoding="utf-8"?>
<!-- Generator: Adobe Illustrator 21.0.0, SVG Export Plug-In . SVG Version: 6.00 Build 0)  -->
<svg version="1.1" width="400" height="400" id="Layer_1" xmlns="http://www.w3.org/2000/svg" xmlns:xlink="http://www.w3.org/1999/xlink" x="0px" y="0px"
	 viewBox="0 0 400.5 400.5" style="enable-background:new 0 0 400.5 400.5;" xml:space="preserve">
<style type="text/css">
	.st0{fill-rule:evenodd;clip-rule:evenodd;fill:url(#SVGID_1_);}
</style>
<linearGradient id="SVGID_1_" gradientUnits="userSpaceOnUse" x1="0.5267" y1="200.5121" x2="400.5266" y2="200.5121">
	<stop  offset="0" style="stop-color:#27BAED"/>
	<stop  offset="1" style="stop-color:#7CD1EA"/>
</linearGradient>
<path id="gifmo" class="st0" d="M359.3,188.8l-41.2-41.3h18.2c-21.7-56-75-93-135.9-93c-63.8,0-121.2,42.6-139.6,103.7
	c-2.7,9-11,14.8-19.9,14.8c-2,0-4-0.3-6-0.9c-11-3.3-17.2-15-13.9-26C44.7,67.7,118.5,12.8,200.4,12.8c83,0,155,53.3,179.3,132.7
	c0.2,0.7,0.3,1.3,0.4,2h20.5L359.3,188.8z M167.9,200.3c0-18,14.6-32.6,32.5-32.6c18,0,32.5,14.6,32.5,32.6s-14.6,32.6-32.5,32.6
	C182.5,232.9,167.9,218.3,167.9,200.3z M83,248.6H62.7c20.2,58.1,75.4,97.9,137.7,97.9c65.8,0,123.7-44.4,140.8-107.9
	c3-11.1,14.4-17.7,25.5-14.7c11.1,3,17.7,14.4,14.7,25.6c-22,81.7-96.4,138.8-181,138.8c-84.6,0-159-57-181-138.7
	c-0.1-0.3-0.1-0.6-0.1-0.9H0.5l41.2-41.3L83,248.6z"/>
  
<animateTransform xlink:href="#gifmo"
                  attributeType="xml"
                  attributeName="transform"
                  type="rotate"
                  from="0 200 200"
                  to="360 200 200"
                  dur="4s"
                  repeatCount="indefinite"/>
</svg>
